<svg xmlns="http://www.w3.org/2000/svg" width="1400" height="820" viewBox="0 0 1400 820">
  <defs>
    <linearGradient id="bg" x1="0" y1="0" x2="1" y2="1"><stop stop-color="#17121f"/><stop offset="1" stop-color="#0c0911"/></linearGradient>
    <linearGradient id="c0" x1="0" y1="0" x2="1" y2="1"><stop stop-color="#d06a7d"/><stop offset="1" stop-color="#3b2032"/></linearGradient>
    <linearGradient id="c1" x1="0" y1="0" x2="1" y2="1"><stop stop-color="#7652a0"/><stop offset="1" stop-color="#2a1d38"/></linearGradient>
    <linearGradient id="c2" x1="0" y1="0" x2="1" y2="1"><stop stop-color="#506f91"/><stop offset="1" stop-color="#172733"/></linearGradient>
    <linearGradient id="c3" x1="0" y1="0" x2="1" y2="1"><stop stop-color="#8a607c"/><stop offset="1" stop-color="#362530"/></linearGradient>
  </defs>
  <rect width="100%" height="100%" rx="28" fill="url(#bg)"/>
  <text x="65" y="49" fill="#b99aff" font-family="Arial, sans-serif" font-size="18" font-weight="700" letter-spacing="3">KOALA · DECKLIST</text>
  <g><rect x="65.0" y="78.0" width="116.2" height="123.2" rx="8" fill="url(#c0)" stroke="rgba(255,255,255,.17)"/><rect x="72.0" y="85.0" width="102.2" height="109.2" rx="5" fill="none" stroke="rgba(255,255,255,.10)"/></g><g><rect x="193.2" y="78.0" width="116.2" height="123.2" rx="8" fill="url(#c1)" stroke="rgba(255,255,255,.17)"/><rect x="200.2" y="85.0" width="102.2" height="109.2" rx="5" fill="none" stroke="rgba(255,255,255,.10)"/></g><g><rect x="321.4" y="78.0" width="116.2" height="123.2" rx="8" fill="url(#c2)" stroke="rgba(255,255,255,.17)"/><rect x="328.4" y="85.0" width="102.2" height="109.2" rx="5" fill="none" stroke="rgba(255,255,255,.10)"/></g><g><rect x="449.6" y="78.0" width="116.2" height="123.2" rx="8" fill="url(#c3)" stroke="rgba(255,255,255,.17)"/><rect x="456.6" y="85.0" width="102.2" height="109.2" rx="5" fill="none" stroke="rgba(255,255,255,.10)"/></g><g><rect x="577.8" y="78.0" width="116.2" height="123.2" rx="8" fill="url(#c0)" stroke="rgba(255,255,255,.17)"/><rect x="584.8" y="85.0" width="102.2" height="109.2" rx="5" fill="none" stroke="rgba(255,255,255,.10)"/></g><g><rect x="706.0" y="78.0" width="116.2" height="123.2" rx="8" fill="url(#c1)" stroke="rgba(255,255,255,.17)"/><rect x="713.0" y="85.0" width="102.2" height="109.2" rx="5" fill="none" stroke="rgba(255,255,255,.10)"/></g><g><rect x="834.2" y="78.0" width="116.2" height="123.2" rx="8" fill="url(#c2)" stroke="rgba(255,255,255,.17)"/><rect x="841.2" y="85.0" width="102.2" height="109.2" rx="5" fill="none" stroke="rgba(255,255,255,.10)"/></g><g><rect x="962.4" y="78.0" width="116.2" height="123.2" rx="8" fill="url(#c3)" stroke="rgba(255,255,255,.17)"/><rect x="969.4" y="85.0" width="102.2" height="109.2" rx="5" fill="none" stroke="rgba(255,255,255,.10)"/></g><g><rect x="1090.6" y="78.0" width="116.2" height="123.2" rx="8" fill="url(#c0)" stroke="rgba(255,255,255,.17)"/><rect x="1097.6" y="85.0" width="102.2" height="109.2" rx="5" fill="none" stroke="rgba(255,255,255,.10)"/></g><g><rect x="1218.8" y="78.0" width="116.2" height="123.2" rx="8" fill="url(#c1)" stroke="rgba(255,255,255,.17)"/><rect x="1225.8" y="85.0" width="102.2" height="109.2" rx="5" fill="none" stroke="rgba(255,255,255,.10)"/></g><g><rect x="65.0" y="213.2" width="116.2" height="123.2" rx="8" fill="url(#c2)" stroke="rgba(255,255,255,.17)"/><rect x="72.0" y="220.2" width="102.2" height="109.2" rx="5" fill="none" stroke="rgba(255,255,255,.10)"/></g><g><rect x="193.2" y="213.2" width="116.2" height="123.2" rx="8" fill="url(#c3)" stroke="rgba(255,255,255,.17)"/><rect x="200.2" y="220.2" width="102.2" height="109.2" rx="5" fill="none" stroke="rgba(255,255,255,.10)"/></g><g><rect x="321.4" y="213.2" width="116.2" height="123.2" rx="8" fill="url(#c0)" stroke="rgba(255,255,255,.17)"/><rect x="328.4" y="220.2" width="102.2" height="109.2" rx="5" fill="none" stroke="rgba(255,255,255,.10)"/></g><g><rect x="449.6" y="213.2" width="116.2" height="123.2" rx="8" fill="url(#c1)" stroke="rgba(255,255,255,.17)"/><rect x="456.6" y="220.2" width="102.2" height="109.2" rx="5" fill="none" stroke="rgba(255,255,255,.10)"/></g><g><rect x="577.8" y="213.2" width="116.2" height="123.2" rx="8" fill="url(#c2)" stroke="rgba(255,255,255,.17)"/><rect x="584.8" y="220.2" width="102.2" height="109.2" rx="5" fill="none" stroke="rgba(255,255,255,.10)"/></g><g><rect x="706.0" y="213.2" width="116.2" height="123.2" rx="8" fill="url(#c3)" stroke="rgba(255,255,255,.17)"/><rect x="713.0" y="220.2" width="102.2" height="109.2" rx="5" fill="none" stroke="rgba(255,255,255,.10)"/></g><g><rect x="834.2" y="213.2" width="116.2" height="123.2" rx="8" fill="url(#c0)" stroke="rgba(255,255,255,.17)"/><rect x="841.2" y="220.2" width="102.2" height="109.2" rx="5" fill="none" stroke="rgba(255,255,255,.10)"/></g><g><rect x="962.4" y="213.2" width="116.2" height="123.2" rx="8" fill="url(#c1)" stroke="rgba(255,255,255,.17)"/><rect x="969.4" y="220.2" width="102.2" height="109.2" rx="5" fill="none" stroke="rgba(255,255,255,.10)"/></g><g><rect x="1090.6" y="213.2" width="116.2" height="123.2" rx="8" fill="url(#c2)" stroke="rgba(255,255,255,.17)"/><rect x="1097.6" y="220.2" width="102.2" height="109.2" rx="5" fill="none" stroke="rgba(255,255,255,.10)"/></g><g><rect x="1218.8" y="213.2" width="116.2" height="123.2" rx="8" fill="url(#c3)" stroke="rgba(255,255,255,.17)"/><rect x="1225.8" y="220.2" width="102.2" height="109.2" rx="5" fill="none" stroke="rgba(255,255,255,.10)"/></g><g><rect x="65.0" y="348.4" width="116.2" height="123.2" rx="8" fill="url(#c0)" stroke="rgba(255,255,255,.17)"/><rect x="72.0" y="355.4" width="102.2" height="109.2" rx="5" fill="none" stroke="rgba(255,255,255,.10)"/></g><g><rect x="193.2" y="348.4" width="116.2" height="123.2" rx="8" fill="url(#c1)" stroke="rgba(255,255,255,.17)"/><rect x="200.2" y="355.4" width="102.2" height="109.2" rx="5" fill="none" stroke="rgba(255,255,255,.10)"/></g><g><rect x="321.4" y="348.4" width="116.2" height="123.2" rx="8" fill="url(#c2)" stroke="rgba(255,255,255,.17)"/><rect x="328.4" y="355.4" width="102.2" height="109.2" rx="5" fill="none" stroke="rgba(255,255,255,.10)"/></g><g><rect x="449.6" y="348.4" width="116.2" height="123.2" rx="8" fill="url(#c3)" stroke="rgba(255,255,255,.17)"/><rect x="456.6" y="355.4" width="102.2" height="109.2" rx="5" fill="none" stroke="rgba(255,255,255,.10)"/></g><g><rect x="577.8" y="348.4" width="116.2" height="123.2" rx="8" fill="url(#c0)" stroke="rgba(255,255,255,.17)"/><rect x="584.8" y="355.4" width="102.2" height="109.2" rx="5" fill="none" stroke="rgba(255,255,255,.10)"/></g><g><rect x="706.0" y="348.4" width="116.2" height="123.2" rx="8" fill="url(#c1)" stroke="rgba(255,255,255,.17)"/><rect x="713.0" y="355.4" width="102.2" height="109.2" rx="5" fill="none" stroke="rgba(255,255,255,.10)"/></g><g><rect x="834.2" y="348.4" width="116.2" height="123.2" rx="8" fill="url(#c2)" stroke="rgba(255,255,255,.17)"/><rect x="841.2" y="355.4" width="102.2" height="109.2" rx="5" fill="none" stroke="rgba(255,255,255,.10)"/></g><g><rect x="962.4" y="348.4" width="116.2" height="123.2" rx="8" fill="url(#c3)" stroke="rgba(255,255,255,.17)"/><rect x="969.4" y="355.4" width="102.2" height="109.2" rx="5" fill="none" stroke="rgba(255,255,255,.10)"/></g><g><rect x="1090.6" y="348.4" width="116.2" height="123.2" rx="8" fill="url(#c0)" stroke="rgba(255,255,255,.17)"/><rect x="1097.6" y="355.4" width="102.2" height="109.2" rx="5" fill="none" stroke="rgba(255,255,255,.10)"/></g><g><rect x="1218.8" y="348.4" width="116.2" height="123.2" rx="8" fill="url(#c1)" stroke="rgba(255,255,255,.17)"/><rect x="1225.8" y="355.4" width="102.2" height="109.2" rx="5" fill="none" stroke="rgba(255,255,255,.10)"/></g><g><rect x="65.0" y="483.6" width="116.2" height="123.2" rx="8" fill="url(#c2)" stroke="rgba(255,255,255,.17)"/><rect x="72.0" y="490.6" width="102.2" height="109.2" rx="5" fill="none" stroke="rgba(255,255,255,.10)"/></g><g><rect x="193.2" y="483.6" width="116.2" height="123.2" rx="8" fill="url(#c3)" stroke="rgba(255,255,255,.17)"/><rect x="200.2" y="490.6" width="102.2" height="109.2" rx="5" fill="none" stroke="rgba(255,255,255,.10)"/></g><g><rect x="321.4" y="483.6" width="116.2" height="123.2" rx="8" fill="url(#c0)" stroke="rgba(255,255,255,.17)"/><rect x="328.4" y="490.6" width="102.2" height="109.2" rx="5" fill="none" stroke="rgba(255,255,255,.10)"/></g><g><rect x="449.6" y="483.6" width="116.2" height="123.2" rx="8" fill="url(#c1)" stroke="rgba(255,255,255,.17)"/><rect x="456.6" y="490.6" width="102.2" height="109.2" rx="5" fill="none" stroke="rgba(255,255,255,.10)"/></g><g><rect x="577.8" y="483.6" width="116.2" height="123.2" rx="8" fill="url(#c2)" stroke="rgba(255,255,255,.17)"/><rect x="584.8" y="490.6" width="102.2" height="109.2" rx="5" fill="none" stroke="rgba(255,255,255,.10)"/></g><g><rect x="706.0" y="483.6" width="116.2" height="123.2" rx="8" fill="url(#c3)" stroke="rgba(255,255,255,.17)"/><rect x="713.0" y="490.6" width="102.2" height="109.2" rx="5" fill="none" stroke="rgba(255,255,255,.10)"/></g><g><rect x="834.2" y="483.6" width="116.2" height="123.2" rx="8" fill="url(#c0)" stroke="rgba(255,255,255,.17)"/><rect x="841.2" y="490.6" width="102.2" height="109.2" rx="5" fill="none" stroke="rgba(255,255,255,.10)"/></g><g><rect x="962.4" y="483.6" width="116.2" height="123.2" rx="8" fill="url(#c1)" stroke="rgba(255,255,255,.17)"/><rect x="969.4" y="490.6" width="102.2" height="109.2" rx="5" fill="none" stroke="rgba(255,255,255,.10)"/></g><g><rect x="1090.6" y="483.6" width="116.2" height="123.2" rx="8" fill="url(#c2)" stroke="rgba(255,255,255,.17)"/><rect x="1097.6" y="490.6" width="102.2" height="109.2" rx="5" fill="none" stroke="rgba(255,255,255,.10)"/></g><g><rect x="1218.8" y="483.6" width="116.2" height="123.2" rx="8" fill="url(#c3)" stroke="rgba(255,255,255,.17)"/><rect x="1225.8" y="490.6" width="102.2" height="109.2" rx="5" fill="none" stroke="rgba(255,255,255,.10)"/></g><g><rect x="65.0" y="618.8" width="116.2" height="123.2" rx="8" fill="url(#c0)" stroke="rgba(255,255,255,.17)"/><rect x="72.0" y="625.8" width="102.2" height="109.2" rx="5" fill="none" stroke="rgba(255,255,255,.10)"/></g><g><rect x="193.2" y="618.8" width="116.2" height="123.2" rx="8" fill="url(#c1)" stroke="rgba(255,255,255,.17)"/><rect x="200.2" y="625.8" width="102.2" height="109.2" rx="5" fill="none" stroke="rgba(255,255,255,.10)"/></g><g><rect x="321.4" y="618.8" width="116.2" height="123.2" rx="8" fill="url(#c2)" stroke="rgba(255,255,255,.17)"/><rect x="328.4" y="625.8" width="102.2" height="109.2" rx="5" fill="none" stroke="rgba(255,255,255,.10)"/></g><g><rect x="449.6" y="618.8" width="116.2" height="123.2" rx="8" fill="url(#c3)" stroke="rgba(255,255,255,.17)"/><rect x="456.6" y="625.8" width="102.2" height="109.2" rx="5" fill="none" stroke="rgba(255,255,255,.10)"/></g><g><rect x="577.8" y="618.8" width="116.2" height="123.2" rx="8" fill="url(#c0)" stroke="rgba(255,255,255,.17)"/><rect x="584.8" y="625.8" width="102.2" height="109.2" rx="5" fill="none" stroke="rgba(255,255,255,.10)"/></g><g><rect x="706.0" y="618.8" width="116.2" height="123.2" rx="8" fill="url(#c1)" stroke="rgba(255,255,255,.17)"/><rect x="713.0" y="625.8" width="102.2" height="109.2" rx="5" fill="none" stroke="rgba(255,255,255,.10)"/></g><g><rect x="834.2" y="618.8" width="116.2" height="123.2" rx="8" fill="url(#c2)" stroke="rgba(255,255,255,.17)"/><rect x="841.2" y="625.8" width="102.2" height="109.2" rx="5" fill="none" stroke="rgba(255,255,255,.10)"/></g><g><rect x="962.4" y="618.8" width="116.2" height="123.2" rx="8" fill="url(#c3)" stroke="rgba(255,255,255,.17)"/><rect x="969.4" y="625.8" width="102.2" height="109.2" rx="5" fill="none" stroke="rgba(255,255,255,.10)"/></g><g><rect x="1090.6" y="618.8" width="116.2" height="123.2" rx="8" fill="url(#c0)" stroke="rgba(255,255,255,.17)"/><rect x="1097.6" y="625.8" width="102.2" height="109.2" rx="5" fill="none" stroke="rgba(255,255,255,.10)"/></g><g><rect x="1218.8" y="618.8" width="116.2" height="123.2" rx="8" fill="url(#c1)" stroke="rgba(255,255,255,.17)"/><rect x="1225.8" y="625.8" width="102.2" height="109.2" rx="5" fill="none" stroke="rgba(255,255,255,.10)"/></g>
  <g transform="translate(700 410) rotate(-14)">
    <text text-anchor="middle" dominant-baseline="middle" fill="rgba(255,255,255,.10)"
          font-family="Arial, sans-serif" font-size="150" font-weight="900" letter-spacing="20">SAMPLE</text>
  </g>
</svg>